<?xml version="1.0" encoding="UTF-8"?>
<svg id="Layer_2" data-name="Layer 2" xmlns="http://www.w3.org/2000/svg" viewBox="0 0 66.12 72">
  <defs>
    <style>
      .cls-1 {
        stroke-width: 0px;
      }
    </style>
  </defs>
  <g id="Layer_1-2" data-name="Layer 1">
    <g>
      <path class="cls-1" d="m61.62,22.5v9h2.81c.93,0,1.69.76,1.69,1.69v5.62c0,.93-.76,1.69-1.69,1.69h-2.81v9h2.81c.93,0,1.69.76,1.69,1.69v5.62c0,.93-.76,1.69-1.69,1.69h-2.81v4.5c0,4.96-4.04,9-9,9H12.12c-4.96,0-9-4.04-9-9V9C3.12,4.04,7.16,0,12.12,0h40.5c4.96,0,9,4.04,9,9v4.5h2.81c.93,0,1.69.76,1.69,1.69v5.62c0,.93-.76,1.69-1.69,1.69h-2.81Zm-4.5-13.5c0-2.47-2.02-4.5-4.5-4.5H12.12c-2.48,0-4.5,2.03-4.5,4.5v54c0,2.47,2.02,4.5,4.5,4.5h40.5c2.48,0,4.5-2.03,4.5-4.5V9Z"/>
      <g>
        <path class="cls-1" d="m21,38.71v12.84h23.26v-12.84c4.32-1.25,6.8-5.77,5.55-10.09-1.25-4.32-5.77-6.8-10.09-5.55-.29.08-.57.18-.84.3-2.88-3.45-8.02-3.91-11.47-1.02-.37.31-.71.65-1.02,1.02-4.15-1.72-8.92.26-10.63,4.41-1.72,4.15.26,8.92,4.41,10.63.27.11.56.21.84.3Zm2.33-13.61c1,0,1.98.26,2.85.75l.96.54.58-.93c1.73-2.71,5.33-3.5,8.03-1.77.71.45,1.31,1.06,1.77,1.77l.58.93.96-.54c2.79-1.59,6.34-.61,7.93,2.18,1.59,2.79.61,6.34-2.18,7.93-.59.34-1.24.57-1.92.68l-.95.16v12.43h-18.61v-12.43l-.97-.16c-3.16-.55-5.28-3.57-4.72-6.73.49-2.77,2.88-4.8,5.7-4.81Z"/>
        <path class="cls-1" d="m32.63,37.31c2.91,0,5.23-1.79,5.23-4.07,0-.64-.52-1.16-1.16-1.16s-1.16.52-1.16,1.16c0,.83-1.19,1.74-2.91,1.74s-2.91-.92-2.91-1.74c0-.64-.52-1.16-1.16-1.16s-1.16.52-1.16,1.16c0,2.28,2.33,4.07,5.23,4.07Z"/>
      </g>
      <path class="cls-1" d="m9.02,72h2.96c4.98,0-4.98-4.04-4.98-9.02V9.02C7,4.04,16.96,0,11.98,0h-2.96C4.04,0,0,4.04,0,9.02v53.96c0,4.98,4.04,9.02,9.02,9.02Z"/>
    </g>
  </g>
</svg>