<?xml version="1.0" encoding="UTF-8"?>
<svg id="Layer_2" data-name="Layer 2" xmlns="http://www.w3.org/2000/svg" viewBox="0 0 168.79 66.87">
  <defs>
    <style>
      .cls-1 {
        fill: #874b63;
        stroke-width: 0px;
      }
    </style>
  </defs>
  <g id="Layer_1-2" data-name="Layer 1">
    <g>
      <g>
        <path class="cls-1" d="m59.58,16.62c.46,2.77,0,6-.46,9.23-.92,3.69-1.85,6.46-3.23,8.31-2.31,2.77-2.31,3.69,0,3.69h1.85c.92,0,1.85-.46,3.23-.92.92-.46,2.77-1.85,5.08-4.15,1.38-1.38,2.77-1.85,3.23-2.31.46-.46.92-.46,1.38,0,1.38,1.38.92,3.69-.46,6-1.38,2.77-3.69,4.62-6.46,6-2.31.92-4.15,1.38-6.46,1.38-1.85,0-3.23-.46-5.08-1.38-3.69-2.31-6.46-5.54-7.85-10.15-.46-2.31-.92-4.62-.92-6.92s.46-4.62.92-6.92c1.85-4.15,5.08-6.46,9.23-6.46,2.77,0,4.62,1.85,6,4.62Zm-9.69,4.15c-.46,1.38-.92,3.23-.92,5.54,0,4.15.46,6.46,1.38,6.46.46,0,.92-.92,1.85-2.31,1.38-3.23,2.31-6.46,2.31-8.77s-.46-3.69-1.85-3.23c-1.38.46-2.31,1.38-2.77,2.31Z"/>
        <path class="cls-1" d="m84.34,13.85c1.38.92,2.31,2.31,2.31,3.23v.92c-.46,1.38-1.85,1.38-4.15.92-3.23-.46-5.54,1.38-6.92,4.62-.46,1.85-.92,3.69-.92,5.54s.46,4.15,1.38,6.46c1.85,3.69,3.69,5.54,6.46,5.54,2.31,0,5.08-1.85,8.31-5.08,1.38-1.38,2.31-2.31,3.23-2.31.92-.46,1.38.46,1.38,1.85v1.38c-.46,4.15-3.23,7.38-8.31,9.69-.92.46-1.85.46-2.77.46-.92.46-2.31.46-4.15,0-4.62-.46-7.85-3.69-10.15-9.23-1.38-2.77-1.85-5.54-1.85-8.77,0-2.77.46-5.54,1.38-8.77,1.38-3.69,3.23-6,6.46-7.38,2.77-1.38,5.54-.92,8.31.92Z"/>
        <path class="cls-1" d="m105.8,17.54c0,1.38-.46,3.69-.46,7.85l-.46,6-.46,5.54c.46,5.08,0,7.38-1.38,7.38-.46,0-.92-.46-1.85-.92-.92-.92-1.38-4.15-1.38-9.23s0-10.62.92-16.15c0-1.85,1.38-2.77,3.23-2.31.92,0,1.85.46,1.85,1.85Z"/>
        <path class="cls-1" d="m156.88,16.62c.46,2.77,0,6-.46,9.23-.92,3.69-1.85,6.46-3.23,8.31-2.31,2.77-2.31,3.69,0,3.69h1.85c.92,0,1.85-.46,3.23-.92.92-.46,2.77-1.85,5.08-4.15,1.38-1.38,2.77-1.85,3.23-2.31.46-.46.92-.46,1.38,0,1.38,1.38.92,3.69-.46,6-1.38,2.77-3.69,4.62-6.46,6-2.31.92-4.15,1.38-6.46,1.38-1.85,0-3.23-.46-5.08-1.38-3.69-2.31-6.46-5.54-7.85-10.15-.46-2.31-.92-4.62-.92-6.92s.46-4.62.92-6.92c1.85-4.15,5.08-6.46,9.23-6.46,2.77,0,4.62,1.85,6,4.62Zm-9.69,4.15c-.46,1.38-.92,3.23-.92,5.54,0,4.15.46,6.46,1.38,6.46.46,0,.92-.92,1.85-2.31,1.38-3.23,2.31-6.46,2.31-8.77s-.46-3.69-1.85-3.23-2.31,1.38-2.77,2.31Z"/>
        <path class="cls-1" d="m109.79,3.14c0,.53-.27,1.07-.53,1.87-.53,1.33-1.33,2.67-2.67,4.27l-2.13,2.67c-.27.27-.27.53-.8.27l-.27-.27-2.4-1.6-1.33-.8c-2.4-1.33-4.54-2.67-4.54-4.8,0-1.87,1.33-3.2,3.2-3.2,1.6,0,2.67,1.07,3.47,2.4.8-1.6,2.67-2.94,4.8-3.2,1.87-.27,3.2.53,3.2,2.4Z"/>
        <path class="cls-1" d="m131.12,15.69c2.31,1.38,3.69,4.15,4.62,6.46.92,3.23,1.38,6,1.38,8.77,0,3.23-1.92,6.46-3.31,9.23-3.69,3.54-8.69,3.54-13.21,4.34-.4.07-.8.02-1.19.13-.69.19-1.32.41-1.67.76-.42.42-1.03,1.73-1.48,3.7-.09.4-.13.81-.13,1.22-.03,3.06-.26,5.29-.69,6.15-.46,1.38-1.85,1.38-3.69,1.38-.38,0-1.37-1.43-1.43-1.89-.18-1.26-.18-3.49-.18-3.75,0-2.51.78-4.25,2.08-18.51,1.38-15.23.92-19.85,1.38-22.62.92-.92,1.38-.92,2.77-.46.92,1.85,9.69,2.31,14.77,5.08Zm-6.01,22.27c2.04-.92,3.33-1.27,4.62-3.42.46-1.85.46-3.62,0-7.31,0-2.31-.92-4.15-2.31-5.54-1.85-1.38-3.69-2.31-6-2.77l-1.85-.46-.46,5.54v7.62l-.46,3.23-.84,3.37c-.04.17.08.33.25.34l2.89.13c.11,0,.21.01.32.03"/>
        <path class="cls-1" d="m14.42,1.38c.46,1.38.92,2.31.92,3.69-.46,1.38,2.31.92,7.38-.46,2.31-.46,4.15-.92,5.54-.92,2.77,0,4.62.92,6,2.77.46.92.92,2.31.92,3.69,0,2.77-.92,6.46-3.23,10.62l-3.69,5.08-5.54,6.92c-.46.92-.92,1.38-.46,1.85,0,.46.92.92,3.23,1.38,1.85.46,3.69.92,6,.92,3.23,0,6.92-.92,10.62-1.85,1.85-.46,3.69-.92,4.62-.92.92.46.92,2.31.46,4.62-.46.46-2.31,1.85-6.46,3.23-1.38.46-3.23.92-5.54.92-1.38,0-3.23-.46-5.08-.46-5.08-.46-9.23-1.38-13.38-2.77-.46-.46-.46,0-.46,1.38l-.46,6.46c0,4.15,0,14.92-.46,15.85-.46,1.38-1.85,1.38-3.23,0-.92-.46-1.38-2.77-1.85-6-.46-2.31-.46-14-.46-19.08v-6.92c0-8.77,0-13.85-.46-15.23-.46-1.38-1.38-1.38-2.77,0-1.38.92-2.77.92-4.15.92S.12,16.15.12,14.31c-.46-.92.46-1.85,2.77-2.31l3.69-1.38c.92-.46,1.38-1.38,1.85-1.85l.46-4.15c.46-2.31.46-3.69.92-4.15.46-.46.92-.46,1.85-.46s1.85.46,2.77,1.38Zm6.92,9.23c-1.38.46-2.77,1.38-4.15,2.31l-1.38,1.38.46,15.69,2.31-2.77,4.15-5.54c3.23-3.69,5.08-6.46,5.54-8.31.46-2.31-.46-3.23-2.77-3.23-.92,0-2.31,0-4.15.46Z"/>
      </g>
      <g>
        <path class="cls-1" d="m120.56,49.44h2.58v17.25h-2.58v-17.25Zm1.58,15.07h4.17c.97,0,1.68-.18,2.15-.54.46-.36.7-.87.7-1.53v-1.15c0-.51-.1-.95-.28-1.32-.19-.36-.48-.64-.86-.84-.39-.19-.87-.29-1.44-.29h-4.43v-2.16h4.43c.76,0,1.34-.18,1.74-.55.39-.37.59-.91.59-1.62v-.88c0-.66-.21-1.17-.64-1.51s-1.05-.51-1.87-.51h-4.26v-2.18h4.48c1.06,0,1.96.16,2.69.49.73.32,1.28.79,1.65,1.39.37.6.55,1.33.55,2.18v.93c0,.56-.11,1.08-.34,1.55-.22.47-.56.87-1,1.18-.44.32-.99.53-1.63.64.67.09,1.24.3,1.73.63.48.34.85.76,1.11,1.27.25.51.38,1.08.38,1.71v1.16c0,.85-.19,1.58-.58,2.2s-.95,1.09-1.67,1.42c-.73.33-1.6.5-2.6.5h-4.77v-2.18Z"/>
        <path class="cls-1" d="m136.07,66.35c-.72-.35-1.26-.86-1.64-1.53-.38-.67-.57-1.47-.57-2.41v-3.82c0-.93.19-1.73.57-2.39.38-.66.92-1.16,1.64-1.51.72-.34,1.58-.52,2.59-.52s1.86.17,2.58.52c.72.34,1.26.85,1.63,1.51.37.66.56,1.46.56,2.39v3.86c0,.93-.19,1.73-.56,2.39-.37.66-.92,1.16-1.63,1.51-.72.35-1.58.52-2.58.52s-1.87-.17-2.59-.52Zm4.19-2.31c.38-.39.57-.94.57-1.64v-3.76c0-.7-.19-1.25-.57-1.63-.38-.38-.92-.58-1.61-.58s-1.23.19-1.62.58c-.38.38-.57.93-.57,1.63v3.76c0,.7.19,1.25.57,1.64.38.39.92.59,1.62.59s1.23-.2,1.61-.59Z"/>
        <path class="cls-1" d="m147.86,66.35c-.72-.35-1.26-.86-1.64-1.53-.38-.67-.57-1.47-.57-2.41v-3.82c0-.93.19-1.73.57-2.39.38-.66.92-1.16,1.64-1.51.72-.34,1.58-.52,2.59-.52s1.86.17,2.58.52c.72.34,1.26.85,1.63,1.51.37.66.56,1.46.56,2.39v3.86c0,.93-.19,1.73-.56,2.39-.37.66-.92,1.16-1.63,1.51-.72.35-1.58.52-2.58.52s-1.87-.17-2.59-.52Zm4.19-2.31c.38-.39.57-.94.57-1.64v-3.76c0-.7-.19-1.25-.57-1.63-.38-.38-.92-.58-1.61-.58s-1.23.19-1.62.58c-.38.38-.57.93-.57,1.63v3.76c0,.7.19,1.25.57,1.64.38.39.92.59,1.62.59s1.23-.2,1.61-.59Z"/>
        <path class="cls-1" d="m157.78,49.44h2.6v17.25h-2.6v-17.25Zm1.17,12.68l6.24-7.75h2.9l-9.16,10.58.03-2.84Zm2.9-2.2l1.61-1.66,5.23,8.42h-2.83l-4.01-6.76Z"/>
      </g>
    </g>
  </g>
</svg>